HIERARCHY
ROOT Hips
{
 OFFSET 0.000000 0.000000 0.000000
 CHANNELS 6 Xposition Yposition Zposition Yrotation Xrotation Zrotation
 JOINT Chest
 {
  OFFSET 0.000000 10.388337 0.005184
  CHANNELS 3 Yrotation Xrotation Zrotation
  JOINT Chest2
  {
   OFFSET 0.000000 10.458247 -0.010579
   CHANNELS 3 Yrotation Xrotation Zrotation
   JOINT Chest3
   {
    OFFSET 0.000000 10.415828 0.000000
    CHANNELS 3 Yrotation Xrotation Zrotation
    JOINT Chest4
    {
     OFFSET 0.000000 10.405206 0.000000
     CHANNELS 3 Yrotation Xrotation Zrotation
     JOINT Neck
     {
      OFFSET 0.000000 15.720090 0.000000
      CHANNELS 3 Yrotation Xrotation Zrotation
      JOINT Head
      {
       OFFSET 0.000000 9.732643 -0.022378
       CHANNELS 3 Yrotation Xrotation Zrotation
       End Site
       {
        OFFSET 0.000000 18.603619 -0.011814
       }
      }
     }
     JOINT RightCollar
     {
      OFFSET -3.167735 10.388953 0.000000
      CHANNELS 3 Yrotation Xrotation Zrotation
      JOINT RightShoulder
      {
       OFFSET -14.584825 0.000000 0.000000
       CHANNELS 3 Yrotation Xrotation Zrotation
       JOINT RightElbow
       {
        OFFSET 0.000000 -31.921689 0.000000
        CHANNELS 3 Yrotation Xrotation Zrotation
        JOINT RightWrist
        {
         OFFSET 0.000000 -25.835217 0.000000
         CHANNELS 3 Yrotation Xrotation Zrotation
         End Site
         {
          OFFSET 0.000000 -19.128920 0.000000
         }
        }
       }
      }
     }
     JOINT LeftCollar
     {
      OFFSET 3.167735 10.388953 0.000000
      CHANNELS 3 Yrotation Xrotation Zrotation
      JOINT LeftShoulder
      {
       OFFSET 14.584825 0.000000 0.000000
       CHANNELS 3 Yrotation Xrotation Zrotation
       JOINT LeftElbow
       {
        OFFSET 0.000000 -31.921689 0.000000
        CHANNELS 3 Yrotation Xrotation Zrotation
        JOINT LeftWrist
        {
         OFFSET 0.000000 -25.835217 0.000000
         CHANNELS 3 Yrotation Xrotation Zrotation
         End Site
         {
          OFFSET 0.000000 -19.128920 0.000000
         }
        }
       }
      }
     }
    }
   }
  }
 }
 JOINT RightHip
 {
  OFFSET -8.403278 -0.025659 -0.002592
  CHANNELS 3 Yrotation Xrotation Zrotation
  JOINT RightKnee
  {
   OFFSET 0.000000 -44.040977 0.002477
   CHANNELS 3 Yrotation Xrotation Zrotation
   JOINT RightAnkle
   {
    OFFSET 0.000000 -42.951162 0.004189
    CHANNELS 3 Yrotation Xrotation Zrotation
    JOINT RightToe
    {
     OFFSET 0.000000 -5.494238 12.197485
     CHANNELS 3 Yrotation Xrotation Zrotation
     End Site
     {
      OFFSET 0.000000 -1.538716 6.371628
     }
    }
   }
  }
 }
 JOINT LeftHip
 {
  OFFSET 8.403278 -0.025659 -0.002592
  CHANNELS 3 Yrotation Xrotation Zrotation
  JOINT LeftKnee
  {
   OFFSET 0.000000 -44.040977 0.002477
   CHANNELS 3 Yrotation Xrotation Zrotation
   JOINT LeftAnkle
   {
    OFFSET 0.000000 -42.951162 0.004189
    CHANNELS 3 Yrotation Xrotation Zrotation
    JOINT LeftToe
    {
     OFFSET 0.000000 -5.494238 12.197485
     CHANNELS 3 Yrotation Xrotation Zrotation
     End Site
     {
      OFFSET 0.000000 -1.538716 6.371628
     }
    }
   }
  }
 }
}
MOTION
Frames: 8
Frame Time: 0.008333
0.000000 92.319940 0.000000 0.000000 -5.767889 0.000000 0.000000 11.653876 0.000000 0.000000 -5.885988 0.000000 0.000000 -0.000000 0.000000 0.000000 -0.000000 0.000000 0.000000 12.528808 0.000000 0.000000 0.711711 0.000000 0.000000 -0.000000 0.000000 0.000000 0.000000 -90.000000 0.000000 -2.309063 0.000000 0.000000 2.309063 0.000000 0.000000 -0.000000 0.000000 0.000000 -0.000000 90.000000 0.000000 -2.309063 0.000000 0.000000 2.309063 0.000000 0.000000 8.520374 0.000000 0.000000 1.905768 0.000000 -0.000000 -4.658254 0.000000 0.000000 -0.000000 0.000000 0.000000 8.520374 0.000000 0.000000 1.905768 0.000000 -0.000000 -4.658254 0.000000 0.000000 -0.000000 0.000000
-287.313157 93.052335 539.204798 134.771524 -4.630174 0.503863 -2.307710 5.727501 -1.716512 -0.086418 0.225488 -0.078683 -0.152363 0.396933 -0.138764 -2.215234 5.494077 -2.033767 0.954348 15.061002 6.270030 -0.534013 -7.668642 11.370159 1.123717 3.975482 1.603278 -0.900307 -2.039904 -5.432002 7.213632 -9.307818 0.773312 -8.881393 -0.019590 -1.199896 1.590947 3.263110 -1.426332 -6.639411 -8.077740 6.766268 -5.329980 0.184170 -4.595088 -0.278408 -2.287218 1.789467 -10.135695 -3.762273 -1.759854 -6.340674 10.661687 -1.377636 -3.725277 -2.526812 0.382773 0.053165 0.608831 0.035594 -3.052808 12.313287 -3.771370 20.958213 2.282031 -0.030108 -4.654884 -10.510983 -1.811696 -0.070476 0.027256 0.310072
-287.230066 93.029458 539.160193 134.852589 -4.572377 0.511277 -2.324437 5.770535 -1.741509 -0.087559 0.227656 -0.078408 -0.154350 0.400690 -0.138265 -2.233119 5.521485 -2.019481 0.940368 15.030605 6.289495 -0.569811 -7.722482 11.413458 1.113794 3.977880 1.607121 -0.952133 -2.032336 -5.416915 7.082357 -9.355533 0.804714 -8.957754 -0.180688 -1.295406 1.639408 3.275236 -1.386179 -6.538976 -7.947725 6.805494 -5.229975 0.517286 -4.214466 -0.301803 -2.236237 1.832468 -10.171123 -3.974800 -1.788427 -6.416422 11.119336 -1.370759 -3.696782 -2.855625 0.411992 0.056644 0.573489 0.018837 -3.091864 12.153488 -3.783050 20.984957 2.648406 0.060076 -4.737016 -10.966632 -1.974193 -0.064551 0.118105 0.359512
-287.127966 93.003609 539.113094 134.955707 -4.510565 0.511544 -2.344637 5.809640 -1.761834 -0.088834 0.229893 -0.078065 -0.156571 0.404565 -0.137645 -2.253670 5.549355 -2.003502 0.922866 14.998829 6.310574 -0.612919 -7.778442 11.461191 1.099777 3.986834 1.610506 -1.017591 -2.021354 -5.397391 6.920946 -9.405986 0.847948 -9.034586 -0.331282 -1.385475 1.686255 3.289826 -1.347772 -6.424631 -7.810426 6.845267 -5.123163 0.830053 -3.850108 -0.324279 -2.192035 1.885303 -10.197332 -4.181871 -1.814514 -6.523337 11.590261 -1.351166 -3.670043 -3.209103 0.434714 0.057012 0.540118 0.002828 -3.201980 11.966938 -3.802180 21.006789 3.083340 0.163516 -4.789494 -11.516620 -2.161046 -0.056947 0.229009 0.422055
-287.008093 92.976280 539.066941 135.082089 -4.447368 0.502474 -2.366416 5.847387 -1.775259 -0.090123 0.232319 -0.077639 -0.158815 0.408766 -0.136879 -2.273653 5.579940 -1.985163 0.899402 14.965126 6.333462 -0.668015 -7.837297 11.514668 1.078817 3.999794 1.611636 -1.099113 -2.004817 -5.372402 6.728882 -9.461750 0.901947 -9.110158 -0.472959 -1.467972 1.723618 3.304004 -1.310861 -6.296765 -7.663227 6.888437 -5.009161 1.118973 -3.509111 -0.343530 -2.155396 1.946742 -10.215824 -4.378394 -1.832959 -6.646545 12.066103 -1.322310 -3.652764 -3.577534 0.453145 0.054576 0.507028 -0.012742 -3.395796 11.752338 -3.830025 21.033896 3.582787 0.284289 -4.812198 -12.149790 -2.359229 -0.047572 0.351753 0.482867
-286.874984 92.949001 539.021381 135.229171 -4.383493 0.505762 -2.392046 5.886131 -1.804202 -0.091499 0.234970 -0.077094 -0.161209 0.413357 -0.135902 -2.294561 5.613501 -1.963564 0.871120 14.929679 6.357495 -0.732720 -7.898835 11.572224 1.054569 4.013172 1.606658 -1.198822 -1.983386 -5.340560 6.517767 -9.521296 0.966452 -9.191175 -0.611489 -1.542651 1.753184 3.312963 -1.277095 -6.154666 -7.503576 6.935731 -4.882631 1.381641 -3.192405 -0.360618 -2.127596 2.015729 -10.228222 -4.560831 -1.863785 -6.773035 12.524536 -1.287265 -3.650361 -3.924973 0.469605 0.050697 0.454831 -0.027069 -3.658418 11.514736 -3.888096 21.053241 4.127102 0.417673 -4.796829 -12.853415 -2.540895 -0.035437 0.487747 0.522099
-286.725941 92.922852 538.983130 135.400439 -4.312075 0.482080 -2.423229 5.923506 -1.809721 -0.093059 0.237775 -0.076363 -0.163924 0.418214 -0.134597 -2.318806 5.648820 -1.937429 0.840049 14.892701 6.381500 -0.802802 -7.962915 11.630913 1.031158 4.025117 1.592417 -1.320320 -1.958287 -5.301141 6.301092 -9.580581 1.041393 -9.278990 -0.751494 -1.610032 1.783613 3.313679 -1.248551 -6.002221 -7.331958 6.985326 -4.742664 1.620638 -2.895859 -0.375814 -2.112459 2.088566 -10.249385 -4.738942 -1.856816 -6.899535 12.987895 -1.256948 -3.664441 -4.303145 0.483239 0.044976 0.421538 -0.039268 -3.951807 11.265280 -3.922289 21.049637 4.680265 0.553104 -4.753762 -13.560353 -2.688636 -0.023869 0.599398 0.526926
-286.567629 92.898835 538.944350 135.591462 -4.238561 0.481308 -2.459639 5.963061 -1.837910 -0.094856 0.240640 -0.075446 -0.167052 0.423172 -0.132967 -2.347815 5.684269 -1.907146 0.806062 14.854324 6.403755 -0.877866 -8.029387 11.687560 1.008282 4.037083 1.567736 -1.461977 -1.928868 -5.255798 6.079238 -9.639616 1.128378 -9.366586 -0.894394 -1.672357 1.819941 3.309197 -1.226739 -5.845522 -7.151650 7.036168 -4.589970 1.835471 -2.619599 -0.386877 -2.106652 2.157980 -10.276314 -4.902355 -1.865775 -7.027327 13.418736 -1.233774 -3.689509 -4.646188 0.497484 0.038551 0.366109 -0.047984 -4.253342 11.015883 -3.980358 21.044835 5.224554 0.686483 -4.723765 -14.274888 -2.793745 -0.010979 0.706768 0.501108
